<?xml version="1.0" encoding="utf-8"?>
<!-- Generator: Adobe Illustrator 19.0.0, SVG Export Plug-In . SVG Version: 6.00 Build 0)  -->
<svg version="1.1" id="Layer_1" xmlns="http://www.w3.org/2000/svg" xmlns:xlink="http://www.w3.org/1999/xlink" x="0px" y="0px"
	 viewBox="0 0 500 248.4" style="enable-background:new 0 0 500 248.4;" xml:space="preserve">
<g id="XMLID_2_">
	<path id="XMLID_3_" d="M20.6,11.1H0V0.6h52.7v10.4H32v67.3H20.6V11.1z"/>
	<path id="XMLID_5_" d="M103.7,44.4H73.8v34H62.4V0.6h11.4V34h29.9V0.6h11.4v77.7h-11.4V44.4z"/>
	<path id="XMLID_7_" d="M171.7,61h-28.5l-5.8,17.4h-12.1l27.4-77.7h9.6l27.4,77.7h-12L171.7,61z M168.5,50.5l-10.9-34h-0.2l-10.9,34
		H168.5z"/>
	<path id="XMLID_10_" d="M204.4,11.1h-20.6V0.6h52.7v10.4h-20.6v67.3h-11.4V11.1z"/>
	<path id="XMLID_12_" d="M245.6,0.6h10.8v11.1l-10.8,8V0.6z"/>
	<path id="XMLID_14_" d="M273.3,59.5c6,5.1,13.1,7.7,21.4,7.7c9.8-0.1,14.7-3.8,14.9-10.8c0.1-5.8-3.2-9.3-9.8-10.5
		c-3-0.4-6.4-0.9-10-1.4c-6.5-1.1-11.4-3.6-14.8-7.4c-3.5-3.9-5.2-8.7-5.2-14.4c0-6.8,2.2-12.3,6.6-16.4c4.2-4.1,10.2-6.2,18-6.3
		c9.4,0.2,17.5,2.9,24.4,8l-6.4,9.7c-5.6-3.8-11.9-5.8-18.7-6c-3.5,0-6.4,0.9-8.8,2.7c-2.4,1.9-3.7,4.7-3.8,8.4
		c0,2.2,0.8,4.3,2.5,6.1c1.7,1.9,4.4,3.1,8.1,3.8c2.1,0.4,4.9,0.8,8.5,1.2c7.1,1,12.3,3.6,15.6,7.8c3.3,4.2,5,9,5,14.5
		c-0.4,14.9-9.2,22.4-26.4,22.6c-11.1,0-20.7-3.5-28.7-10.6L273.3,59.5z"/>
	<path id="XMLID_16_" d="M46.4,145.1H17.9l-5.8,17.4H0l27.4-77.7h9.6l27.4,77.7h-12L46.4,145.1z M43.2,134.7l-10.9-34h-0.2l-10.9,34
		H43.2z"/>
	<path id="XMLID_19_" d="M125,119.8h26.8v15.8c-0.1,7.8-2.7,14.3-7.7,19.5c-5.1,5.2-11.4,7.9-19.1,8c-5.9-0.1-10.9-1.6-14.8-4.5
		c-4-2.7-7-5.9-8.8-9.5c-0.6-1.2-1-2.3-1.5-3.4c-0.4-1.1-0.8-2.5-1-4.2c-0.5-3.1-0.8-9.1-0.8-18c0-9,0.3-15.1,0.8-18.1
		c0.6-3.1,1.4-5.5,2.5-7.4c1.8-3.6,4.7-6.8,8.8-9.6c4-2.8,8.9-4.3,14.8-4.4c7.3,0.1,13.2,2.3,17.8,6.7c4.6,4.4,7.5,9.9,8.7,16.4
		h-12.1c-0.9-3.1-2.6-5.8-5.1-8c-2.5-2.1-5.7-3.2-9.3-3.3c-2.7,0.1-5,0.6-6.9,1.7c-2,1.1-3.5,2.4-4.8,4c-1.5,1.7-2.5,3.8-2.9,6.5
		c-0.6,2.8-0.8,8-0.8,15.7c0,7.7,0.3,12.8,0.8,15.5c0.5,2.7,1.5,4.9,2.9,6.6c1.2,1.6,2.8,2.9,4.8,3.9c1.9,1.2,4.2,1.8,6.9,1.8
		c4.4,0,8.1-1.6,11-4.7c2.9-3,4.4-6.9,4.4-11.8v-4.1H125V119.8z"/>
	<path id="XMLID_21_" d="M164.6,123.7c0-9,0.3-15.1,0.8-18.2c0.6-3.1,1.4-5.5,2.5-7.4c1.8-3.6,4.7-6.8,8.8-9.6
		c4-2.8,8.9-4.3,14.8-4.4c6,0.1,11,1.5,15,4.4c4,2.8,6.8,6,8.6,9.6c1.3,1.9,2.1,4.4,2.6,7.4c0.4,3.1,0.7,9.1,0.7,18.1
		c0,8.9-0.2,14.9-0.7,18c-0.5,3.1-1.4,5.6-2.6,7.5c-1.8,3.6-4.6,6.8-8.6,9.5c-4,2.8-9,4.3-15,4.5c-5.9-0.1-10.9-1.6-14.8-4.5
		c-4-2.7-7-5.9-8.8-9.5c-0.6-1.2-1-2.3-1.5-3.4c-0.4-1.1-0.8-2.5-1-4.2C164.9,138.5,164.6,132.5,164.6,123.7z M176,123.7
		c0,7.7,0.3,12.8,0.8,15.5c0.5,2.7,1.5,4.9,2.9,6.6c1.2,1.6,2.8,2.9,4.8,3.9c1.9,1.2,4.2,1.8,6.9,1.8c2.7,0,5.1-0.6,7.1-1.8
		c1.9-1,3.4-2.3,4.6-3.9c1.5-1.7,2.5-3.9,3.1-6.6c0.5-2.7,0.8-7.9,0.8-15.5c0-7.7-0.3-12.9-0.8-15.7c-0.6-2.6-1.6-4.8-3.1-6.5
		c-1.1-1.6-2.7-2.9-4.6-4c-2-1-4.4-1.6-7.1-1.7c-2.7,0.1-5,0.6-6.9,1.7c-2,1.1-3.6,2.4-4.8,4c-1.5,1.7-2.5,3.8-2.9,6.5
		C176.3,110.8,176,116,176,123.7z"/>
	<path id="XMLID_24_" d="M231.2,123.7c0-9,0.3-15.1,0.8-18.2c0.6-3.1,1.4-5.5,2.5-7.4c1.8-3.6,4.7-6.8,8.8-9.6
		c4-2.8,8.9-4.3,14.8-4.4c6,0.1,11,1.5,15,4.4c4,2.8,6.8,6,8.6,9.6c1.3,1.9,2.1,4.4,2.6,7.4c0.4,3.1,0.7,9.1,0.7,18.1
		c0,8.9-0.2,14.9-0.7,18c-0.5,3.1-1.4,5.6-2.6,7.5c-1.8,3.6-4.6,6.8-8.6,9.5c-4,2.8-9,4.3-15,4.5c-5.9-0.1-10.9-1.6-14.8-4.5
		c-4-2.7-7-5.9-8.8-9.5c-0.6-1.2-1-2.3-1.5-3.4c-0.4-1.1-0.8-2.5-1-4.2C231.4,138.5,231.2,132.5,231.2,123.7z M242.6,123.7
		c0,7.7,0.3,12.8,0.8,15.5c0.5,2.7,1.5,4.9,2.9,6.6c1.2,1.6,2.8,2.9,4.8,3.9c1.9,1.2,4.2,1.8,6.9,1.8c2.7,0,5.1-0.6,7.1-1.8
		c1.9-1,3.4-2.3,4.6-3.9c1.5-1.7,2.5-3.9,3.1-6.6c0.5-2.7,0.8-7.9,0.8-15.5c0-7.7-0.3-12.9-0.8-15.7c-0.6-2.6-1.6-4.8-3.1-6.5
		c-1.1-1.6-2.7-2.9-4.6-4c-2-1-4.4-1.6-7.1-1.7c-2.7,0.1-5,0.6-6.9,1.7c-2,1.1-3.6,2.4-4.8,4c-1.5,1.7-2.5,3.8-2.9,6.5
		C242.9,110.8,242.6,116,242.6,123.7z"/>
	<path id="XMLID_27_" d="M300.3,84.8h26.3c10.2,0.1,17.8,4.4,22.9,13.1c1.8,2.9,3,6,3.5,9.2c0.4,3.2,0.6,8.7,0.6,16.6
		c0,8.4-0.3,14.2-0.9,17.5c-0.3,1.7-0.7,3.2-1.2,4.5c-0.6,1.3-1.3,2.6-2.1,4c-2.2,3.7-5.3,6.7-9.2,9.1c-3.9,2.6-8.7,3.8-14.3,3.8
		h-25.6V84.8z M311.7,151.4h13.6c6.4,0,11.1-2.3,14-6.8c1.3-1.7,2.1-3.8,2.4-6.4c0.3-2.5,0.5-7.3,0.5-14.2c0-6.8-0.2-11.6-0.5-14.5
		c-0.4-2.9-1.4-5.3-2.9-7.1c-3.2-4.5-7.7-6.7-13.4-6.6h-13.6V151.4z"/>
	<path id="XMLID_30_" d="M49.9,240.6c-4.4,4.3-10.4,6.6-17.8,6.7c-5.9-0.1-10.9-1.6-14.8-4.5c-4-2.7-7-5.9-8.8-9.5
		C8,232.2,7.5,231,7.1,230c-0.4-1.1-0.8-2.5-1-4.2c-0.5-3.1-0.8-9.1-0.8-18c0-9,0.3-15.1,0.8-18.1c0.6-3.1,1.4-5.5,2.5-7.4
		c1.8-3.6,4.7-6.8,8.8-9.6c4-2.8,8.9-4.3,14.8-4.4c6,0.1,11,1.5,15,4.4c4,2.8,6.8,6,8.6,9.6c1.3,1.9,2.1,4.4,2.6,7.4
		c0.4,3.1,0.7,9.1,0.7,18.1c0,8.1-0.2,13.7-0.5,16.9c-0.4,3.2-1.2,5.7-2.2,7.5l9.9,8.2l-6.8,8.1L49.9,240.6z M31,224.9l6.8-8.1
		l8.8,7.2c0.7-2.6,1.1-8.1,1.1-16.3c0-7.7-0.3-12.9-0.8-15.7c-0.6-2.6-1.6-4.8-3.1-6.5c-1.1-1.6-2.7-2.9-4.6-4c-2-1-4.4-1.6-7.1-1.7
		c-2.7,0.1-5,0.6-6.9,1.7c-2,1.1-3.6,2.4-4.8,4c-1.5,1.7-2.5,3.8-2.9,6.5c-0.6,2.8-0.8,8-0.8,15.7c0,7.7,0.3,12.8,0.8,15.5
		c0.5,2.7,1.5,4.9,2.9,6.6c1.2,1.6,2.8,2.9,4.8,3.9c1.9,1.2,4.2,1.8,6.9,1.8c3.5,0,6.3-0.9,8.4-2.7L31,224.9z"/>
	<path id="XMLID_33_" d="M72.4,168.9h11.4v50.2c0.1,5.3,1.6,9.3,4.4,12.1c2.8,2.9,6.5,4.4,10.9,4.4c4.4,0,8.1-1.5,11-4.4
		c2.8-2.8,4.3-6.8,4.3-12.1v-50.2h11.4v51.4c-0.1,8.2-2.7,14.7-7.7,19.5c-5,4.9-11.4,7.4-19.1,7.5c-7.5-0.1-13.8-2.6-18.9-7.5
		c-5.2-4.8-7.8-11.3-7.9-19.4V168.9z"/>
	<path id="XMLID_35_" d="M142.5,168.9h48.1V180h-36.7v22.2h31.3v10.4h-31.3v22.9h36.7v11.1h-48.1V168.9z"/>
	<path id="XMLID_37_" d="M204.2,227.8c6,5.1,13.1,7.7,21.4,7.7c9.8-0.1,14.7-3.8,14.9-10.8c0.1-5.8-3.2-9.3-9.8-10.5
		c-3-0.4-6.4-0.9-10-1.4c-6.5-1.1-11.4-3.6-14.8-7.4c-3.5-3.9-5.2-8.7-5.2-14.4c0-6.8,2.2-12.3,6.6-16.4c4.2-4.1,10.2-6.2,18-6.3
		c9.4,0.2,17.5,2.9,24.4,8l-6.4,9.7c-5.6-3.8-11.9-5.8-18.7-6c-3.5,0-6.4,0.9-8.8,2.7c-2.4,1.9-3.7,4.7-3.8,8.4
		c0,2.2,0.8,4.3,2.5,6.1c1.7,1.9,4.4,3.1,8.1,3.8c2.1,0.4,4.9,0.8,8.5,1.2c7.1,1,12.3,3.6,15.6,7.8c3.3,4.2,5,9,5,14.5
		c-0.4,14.9-9.2,22.4-26.4,22.6c-11.1,0-20.7-3.5-28.7-10.6L204.2,227.8z"/>
	<path id="XMLID_39_" d="M278.7,179.4h-20.6v-10.4h52.7v10.4h-20.6v67.3h-11.4V179.4z"/>
	<path id="XMLID_41_" d="M320.5,168.9h11.4v77.7h-11.4V168.9z"/>
	<path id="XMLID_43_" d="M346.1,207.8c0-9,0.3-15.1,0.8-18.2c0.5-3.1,1.4-5.5,2.5-7.4c1.8-3.6,4.7-6.8,8.8-9.6
		c4-2.8,8.9-4.3,14.8-4.4c6,0.1,11,1.5,15,4.4c4,2.8,6.8,6,8.6,9.6c1.3,1.9,2.1,4.4,2.6,7.4c0.4,3.1,0.7,9.1,0.7,18.1
		c0,8.9-0.2,14.9-0.7,18c-0.5,3.1-1.4,5.6-2.6,7.5c-1.8,3.6-4.6,6.8-8.6,9.5c-4,2.8-9,4.3-15,4.5c-5.9-0.1-10.9-1.6-14.8-4.5
		c-4-2.7-6.9-5.9-8.8-9.5c-0.6-1.2-1-2.3-1.5-3.4c-0.4-1.1-0.8-2.5-1-4.2C346.3,222.7,346.1,216.7,346.1,207.8z M357.5,207.8
		c0,7.7,0.3,12.8,0.8,15.5c0.5,2.7,1.5,4.9,2.9,6.6c1.2,1.6,2.8,2.9,4.8,3.9c1.9,1.2,4.2,1.8,6.9,1.8c2.7,0,5.1-0.6,7.1-1.8
		c1.9-1,3.4-2.3,4.6-3.9c1.5-1.7,2.5-3.9,3.1-6.6c0.5-2.7,0.8-7.9,0.8-15.5c0-7.7-0.3-12.9-0.8-15.7c-0.6-2.6-1.6-4.8-3.1-6.5
		c-1.1-1.6-2.7-2.9-4.6-4c-2-1-4.4-1.6-7.1-1.7c-2.7,0.1-5,0.6-6.9,1.7c-2,1.1-3.6,2.4-4.8,4c-1.5,1.7-2.5,3.8-2.9,6.5
		C357.7,194.9,357.5,200.1,357.5,207.8z"/>
	<path id="XMLID_46_" d="M415.2,168.9h10.7l34.1,55.3h0.2v-55.3h11.4v77.7h-10.8l-34-55.3h-0.2v55.3h-11.4V168.9z"/>
	<path id="XMLID_48_" d="M489.2,235.6H500v11.1h-10.8V235.6z"/>
</g>
</svg>
