<?xml version="1.0" encoding="utf-8"?>
<!-- Generator: Adobe Illustrator 19.0.0, SVG Export Plug-In . SVG Version: 6.00 Build 0)  -->
<svg version="1.1" id="Layer_1" xmlns="http://www.w3.org/2000/svg" xmlns:xlink="http://www.w3.org/1999/xlink" x="0px" y="0px"
	 viewBox="0 0 801.3 76.6" style="enable-background:new 0 0 801.3 76.6;" xml:space="preserve">
<style type="text/css">
	.st0{fill:#333333;}
</style>
<g id="XMLID_2_">
	<path id="XMLID_3_" class="st0" d="M56.8,11c-3.3,2.4-7.2,3.4-11.7,3l-1.2-0.1v44c7-2.2,12.7-6.6,17.1-13.3l0.5,0.3
		c-3.3,11.7-9.5,18.7-18.7,21c-2.6,0.7-5.3,1-8.2,1c-11.3,0-19.7-4-25.4-12c-3.3-4.5-4.9-9.6-4.9-15.3c0-2.3,0.4-4.8,1.1-7.6
		c1.2-4.6,3.3-8.7,6.4-12.4c1.1-1.5,2.6-3,4.3-4.6c1.7-1.6,3.7-3.2,6-4.9L16,9.8c-3.1-0.1-5.9,0.5-8.4,1.9C5.4,13,3,15.4,0.4,19H0
		C2,6.7,10,0.6,24.1,0.6c4.7,0,8.7,0.4,12.2,1.3c1.9,0.5,4.4,1.2,7.5,2.1c3,0.9,5.6,1.3,7.8,1.3c4.3,0,7.6-1.8,9.7-5.3l0.6,0.1
		C61.9,4.9,60.2,8.5,56.8,11z M25.4,10.8l-1.5-0.4c-6.7,7.1-10,14.8-10,23.2c0,7.1,2.7,13.2,8.2,18.5c2.2-2.1,3.3-4.8,3.3-8.2V10.8z
		 M41.7,13.8l-6.5-1.3v20.4c0,4.6-0.9,8.5-2.8,11.6c-1.3,2.3-4,5.4-8.1,9.1c4.5,3.3,9.8,5,16.1,5l1.3-0.3V13.8z"/>
	<path id="XMLID_7_" class="st0" d="M88.9,70.1c-4.5,3-10.3,5.2-17.2,6.5L71.4,76c3.3-1.3,5.9-2.4,8-3.4c2-1,3.5-1.8,4.5-2.5
		c3.5-2.6,5.3-6.3,5.3-11.1v-28c-0.4-1.8-1.7-3.4-3.8-4.7l-7.9,5.9V57l2.6,2.9l-7.6,6.6l-7.5-6.1l2.9-3.4V25.7h-4.9v-4.9H68v-5.9
		c0-4.5-1.2-7.8-3.6-10l0.2-0.2c2.5,0.9,4.5,2,6.2,3.3l1.5-0.1c2.9-3.3,6.1-5,9.6-5C79,5.4,77.6,8.4,77.6,12v17.7l14-10.3
		c4.4,2.9,6.6,6.8,6.6,11.7v24.4C98.2,61.4,95.1,66.2,88.9,70.1z"/>
	<path id="XMLID_9_" class="st0" d="M127.3,66.2c-4.3-2.3-6.4-5.9-6.4-10.8l-13.6,10.9h-0.5c-4.7-4.4-7.1-8.7-7.1-12.8
		c0-6.1,3.3-12.2,9.9-18.1l-4.8-12.5l1.3,0.1c3.7,0.3,7.2-1,10.3-3.9l14.2,4.7l2.8-2.2l0.2,0.4c-1.6,2.5-2.7,5-3.4,7.7v26.2
		c0.5,1.7,1.4,2.7,2.8,3.1l1.8-0.9l1.1,0.9L127.3,66.2z M120.9,29.2l-14.5-5.4l4.2,11.4l10.3,5V29.2z M121,42l-10.4-5.2
		c-1.9,3.5-2.9,6.7-2.9,9.8c0,4.5,1.9,8.7,5.8,12.6l7.5-6.4V42z"/>
	<path id="XMLID_13_" class="st0" d="M148.7,25.7v29.1l5.3,4.4l2.8-2.2l1.1,1.4l-9,7.8c-4.7-3.8-8.9-6.3-12.6-7.6
		c1.8-1.9,2.7-4.3,2.7-7.2V25.6h-3.5l0.1-1.4l13-16.3l0.1,12.7h10.2v5.1H148.7z"/>
	<path id="XMLID_15_" class="st0" d="M161.6,22.8l-1.8-2c3-2.6,4.5-4.8,4.5-6.5c0-1.6-1.5-4-4.5-7.1l7.6-7.2
		c0.3,0.3,0.7,0.7,1.2,1.1c0.4,0.4,1,1,1.5,1.6c0.5,0.5,1.1,1.1,1.8,1.8c0.8,0.7,1.7,1.6,2.8,2.6C172.2,13.5,167.8,18.7,161.6,22.8z
		"/>
	<path id="XMLID_17_" class="st0" d="M207.9,22.8l-9.1,12.3l9.4,5.8v18.4c-2.3,0.7-4.4,1.7-6.5,3c-0.5,0.3-1.3,0.8-2.3,1.5
		c-1,0.6-2.2,1.4-3.6,2.4c-3.5-1.7-6.8-2.6-10.1-2.6c-3.1,0-6.5,0.8-10.1,2.3l-1.3-0.9l11.9-17l-9.6-5.3V27.2
		c4.5-2,8.6-4.8,12.3-8.3c5.6,2.7,9.9,4.1,12.8,4.1l2.6-0.3c0.9,0,1.8-0.3,2.6-1s1.2-1.5,1.2-2.5c0-0.7-0.7-1.9-2.2-3.8l-0.5-0.9
		c0-1.1,0.8-1.6,2.4-1.6c2,0,3,1.2,3,3.7C210.8,18.1,209.8,20.1,207.9,22.8z M193.6,42l-11.1,14.4c1.8-0.4,4-0.6,6.5-0.6
		c3.5,0,7.1,0.9,10.8,2.7l0.1-13.3L193.6,42z M198.5,28.8c-0.9,0.1-1.9,0.1-3,0.1c-3.1,0-6.4-0.7-10-2.2l-0.1,11.5l6,3.1l9.7-12.8
		C200.3,28.6,199.4,28.7,198.5,28.8z"/>
	<path id="XMLID_21_" class="st0" d="M268.5,66.2c-4.3-2.3-6.4-5.9-6.4-10.8l-13.6,10.9H248c-4.7-4.4-7.1-8.7-7.1-12.8
		c0-6.1,3.3-12.2,9.9-18.1L246,22.9l1.3,0.1c3.7,0.3,7.2-1,10.3-3.9l14.2,4.7l2.8-2.2l0.2,0.4c-1.6,2.5-2.7,5-3.4,7.7v26.2
		c0.5,1.7,1.4,2.7,2.8,3.1l1.8-0.9l1.1,0.9L268.5,66.2z M262.1,29.2l-14.5-5.4l4.2,11.4l10.3,5V29.2z M262.2,42l-10.4-5.2
		c-1.9,3.5-2.9,6.7-2.9,9.8c0,4.5,1.9,8.7,5.8,12.6l7.5-6.4V42z"/>
	<path id="XMLID_25_" class="st0" d="M356.7,59.1c-7.2,5.2-15.3,7.8-24.2,7.8c-9.5,0-16.5-3.2-21.2-9.6c-2.7-3.8-4.2-7.7-4.5-11.7
		l-0.2-3.1c-0.3-5.3,1.5-11,5.4-17.1c3.5-5.4,7.7-9.8,12.6-13.2l16.5-11.5c6.9,3.9,13,5.6,18.4,5.2l5.9-0.4l0.1,0.3l-14.7,11.5
		c11.9,3.7,17.9,10.3,17.9,19.7v0.5C368.7,46.1,364.7,53.3,356.7,59.1z M322.7,17.8c-4.3,4.2-6.5,10-6.5,17.3
		c0,6.3,1.7,11.7,5.1,16.1c1.1-0.7,1.6-1.8,1.6-3.3L322.7,17.8z M337.3,29.9c-1.3,0.3-2.8,1-4.5,2v5.9c0,4.4-0.9,7.4-2.7,9
		c-0.9,0.8-2,1.8-3.3,2.9c-1.3,1.1-2.8,2.4-4.5,3.9c4.5,5.1,9.5,8.1,15,9.1V29.9z M332.9,9.1V29l16.8-13.4L332.9,9.1z M355.7,30.6
		c-2.4-1.9-5.4-2.9-9-2.9c-2.5,0-4.9,0.4-7.2,1.2V39c4.1,2,7.5,3,10.3,3c2.9,0,6.3-1.1,10.3-3.3C359.6,35.2,358.1,32.5,355.7,30.6z
		 M349.7,50.1c-2.5,0-5.9,0.7-10.2,2.1v10.5c8,0,14.3-3.5,18.9-10.5C355.4,50.8,352.5,50.1,349.7,50.1z M360.6,40.8
		c-4.4,1.9-8.1,2.9-11.1,2.9c-2.3,0-5.6-0.8-9.9-2.3v8.7c3.6-1.2,7-1.8,10.1-1.8c3.5,0,6.7,0.7,9.4,2.1c1.1-2.7,1.7-5.3,1.7-7.9
		L360.6,40.8z"/>
	<path id="XMLID_33_" class="st0" d="M387,66.5c-5.3-3.9-11.3-6.5-18-7.9c1.8-1.5,2.7-4,2.7-7.7V27.2c5.3-1.5,10.1-4.1,14.2-8
		c6.3,4.1,11.6,6.4,15.9,7v32.6C395.9,60.5,391,63.1,387,66.5z M392.4,31.1l-11.5-4.4v27.6c1.1,0.5,2.3,0.9,3.5,1.4
		c1.2,0.5,2.4,0.9,3.6,1.4c1.7,0.7,3.2,1.2,4.4,1.5V31.1z"/>
	<path id="XMLID_36_" class="st0" d="M422.7,66.5c-5.3-3.9-11.3-6.5-18-7.9c1.8-1.5,2.7-4,2.7-7.7V27.2c5.3-1.5,10.1-4.1,14.2-8
		c6.3,4.1,11.6,6.4,15.9,7v32.6C431.6,60.5,426.7,63.1,422.7,66.5z M428.1,31.1l-11.5-4.4v27.6c1.1,0.5,2.3,0.9,3.5,1.4
		c1.2,0.5,2.4,0.9,3.6,1.4c1.7,0.7,3.2,1.2,4.4,1.5V31.1z"/>
	<path id="XMLID_39_" class="st0" d="M475.1,58.8c-5.9,1.9-10.8,4.5-14.8,7.7c-5.3-3.9-11.3-6.5-18-7.9c1.9-1.7,2.8-4.2,2.8-7.7V27
		c1.2-0.3,2.5-0.8,4-1.5c1.5-0.6,3.2-1.4,5.1-2.4L441.5,15V5.5l30.4,19.4c0.9-1.5,2.2-2.6,4-3.3c-0.5,1.5-0.8,2.9-0.8,4.3V58.8z
		 M465.6,30.6l-7.9-5.3l-3.3,2v27.3l11.2,4V30.6z"/>
	<path id="XMLID_42_" class="st0" d="M565.7,70.1L552.4,59c-7.9,5.3-15,7.9-21.5,7.9c0.1,0-0.3,0-1.2-0.1c-0.9-0.1-2.3-0.3-4.1-0.6
		c-5.7-1.3-10.2-4.4-13.7-9.3c-3.1-4.1-4.8-9.4-5.3-15.8l-0.2-2.4c-0.1-1,0-2.2,0.1-3.8c0.2-1.5,0.5-3.2,1-5.2
		c0.3-1.3,0.7-2.7,1.1-4c0.4-1.4,0.9-2.8,1.4-4.4c2.7-1.5,5.3-3.1,8-4.9c2.6-1.7,5.3-3.4,8-5.2c2.3-1.5,4.7-3.2,7.2-5
		c2.6-1.8,5.4-3.8,8.4-6c7.5,0.9,14,3.2,19.4,7c6.1,4.3,9.9,9.9,11.3,16.8l0.3,4.1c0.3,3.7-1,8-3.7,13c-2.1,3.8-4.9,7.5-8.4,11
		l9.4,7.9c0.9,0.7,1.6,1.1,1.9,1.1c0.5,0,1.2-0.4,2.2-1.2l1.4,1.5L565.7,70.1z M523.8,14.7c-5.8,5.8-8.7,12.3-8.7,19.5
		c0,5.7,2,10.9,5.9,15.6c1.9-2.7,2.8-5.7,2.8-9.2V14.7z M536.5,9.9h-4v24.9c0,3.7-1.6,7.4-4.7,11.1c-0.2,0.3-0.8,0.9-1.7,1.8
		c-0.9,0.9-2.1,2.2-3.8,3.9c4.9,4.7,9.6,7,14.1,7V9.9z M538.7,10.2v11.4c3.9,3.1,7.5,4.7,10.8,4.7c3.5,0,6.6-1.6,9.5-4.9
		C555.5,15.7,548.8,12,538.7,10.2z M549.9,36.6c-3.5,0-7.3,1.7-11.2,5v16.9c8.9,0,16.1-5.3,21.7-15.9
		C557.3,38.6,553.8,36.6,549.9,36.6z M560.2,23.2c-3.5,3-7.2,4.5-11.1,4.5c-3.3,0-6.8-1.1-10.3-3.2v14.3c3.9-2.5,7.7-3.8,11.2-3.8
		c3.9,0,7.6,1.6,11.3,4.9c1.1-2.9,1.6-5.4,1.6-7.3C562.9,29.3,562,26.1,560.2,23.2z"/>
	<path id="XMLID_49_" class="st0" d="M607.1,66.5c-4.2-2.9-6.3-6.4-6.3-10.6l-14.3,10.2c-4.2-2.7-6.3-6.5-6.3-11.6V28.1l-1.8-1.7
		l-2.3,1.4l-1-1.1l9.6-7.4l7.6,5.9l-3,2.4v26.6c0,1.9,1.2,3.5,3.6,4.8l8.1-5.8V28.1l-2.4-3l7.1-5.9l7.4,5.9l-2.9,2.5v28.5
		c0,1.1,1,2.1,3,3.2l1.8-1.2l1,1L607.1,66.5z"/>
	<path id="XMLID_51_" class="st0" d="M628.5,45.2v10.4l8.4,3.7l6.6-4.2l1.1,1.2c-0.9,0.5-1.8,1.1-2.7,1.7s-1.8,1.3-2.8,2l-8.7,6.1
		c-4.5-2.5-9.1-4.1-13.8-5c1.9-1.9,2.8-4.4,2.8-7.3V27.1c2.3-1.1,4.6-2.3,6.8-3.6c2.2-1.3,4.5-2.8,6.7-4.3l12.9,12.9
		C638.5,37.2,632.7,41.6,628.5,45.2z M628.4,25.7v17.2l9.5-7.5L628.4,25.7z"/>
	<path id="XMLID_54_" class="st0" d="M679.6,22.8l-9.1,12.3l9.4,5.8v18.4c-2.3,0.7-4.4,1.7-6.5,3c-0.5,0.3-1.3,0.8-2.3,1.5
		c-1,0.6-2.2,1.4-3.6,2.4c-3.5-1.7-6.8-2.6-10.1-2.6c-3.1,0-6.5,0.8-10.1,2.3l-1.3-0.9l11.9-17l-9.6-5.3V27.2
		c4.5-2,8.6-4.8,12.3-8.3c5.6,2.7,9.9,4.1,12.8,4.1l2.6-0.3c0.9,0,1.8-0.3,2.6-1s1.2-1.5,1.2-2.5c0-0.7-0.7-1.9-2.2-3.8l-0.5-0.9
		c0-1.1,0.8-1.6,2.4-1.6c2,0,3,1.2,3,3.7C682.5,18.1,681.5,20.1,679.6,22.8z M665.3,42l-11.1,14.4c1.8-0.4,4-0.6,6.5-0.6
		c3.5,0,7.1,0.9,10.8,2.7l0.1-13.3L665.3,42z M670.2,28.8c-0.9,0.1-1.9,0.1-3,0.1c-3.1,0-6.4-0.7-10-2.2l-0.1,11.5l6,3.1l9.7-12.8
		C672,28.6,671.1,28.7,670.2,28.8z"/>
	<path id="XMLID_58_" class="st0" d="M695.8,25.7v29.1l5.3,4.4l2.8-2.2l1.1,1.4l-9,7.8c-4.7-3.8-8.9-6.3-12.6-7.6
		c1.8-1.9,2.7-4.3,2.7-7.2V25.6h-3.5l0.1-1.4l13-16.3l0.1,12.7H706v5.1H695.8z"/>
	<path id="XMLID_60_" class="st0" d="M715.3,66.4c-4.5-2.4-6.6-5.8-6.3-10.1l0.1-1.8V28.4l-2.9-3.1l7.4-6.1l7.7,6.4l-2.5,2.8v27.7
		c0.3,1.3,1.3,2.4,2.8,3.2l1.8-1.2l1,0.9L715.3,66.4z M713.3,14.7H712l2.4-10.2h7.4L713.3,14.7z"/>
	<path id="XMLID_63_" class="st0" d="M742.7,66.5c-5.3-3.9-11.3-6.5-18-7.9c1.8-1.5,2.7-4,2.7-7.7V27.2c5.3-1.5,10.1-4.1,14.2-8
		c6.3,4.1,11.6,6.4,15.9,7v32.6C751.6,60.5,746.7,63.1,742.7,66.5z M748.1,31.1l-11.5-4.4v27.6c1.1,0.5,2.3,0.9,3.5,1.4
		c1.2,0.5,2.4,0.9,3.6,1.4c1.7,0.7,3.2,1.2,4.4,1.5V31.1z"/>
	<path id="XMLID_66_" class="st0" d="M792.3,66.5c-2.4-1.5-4-3.2-4.8-4.9c-0.8-1.7-1.2-4.1-1.2-7.1V30.6l-4.5-3.9l-7.1,5.2v24.8
		l2.7,3.4l-7.2,6.4l-7.6-6.4l2.8-3.1V31.3c0-1.7-0.8-3.3-2.4-4.6l-1.6,1.1l-1-1.1l8.2-7.5c4.2,2.5,6.3,6,6.3,10.5
		c2.8-2.1,5.3-4,7.4-5.7c2.1-1.7,3.9-3.3,5.4-4.6l6.9,6.4l4.3-3.4l1,1.1c-0.7,0.9-1.5,1.9-2.2,3c-0.7,1.1-1.5,2.2-2.2,3.3v26.3
		c0.5,1.2,1.4,2.3,2.8,3.2l2.1-1.2l1,1L792.3,66.5z"/>
</g>
</svg>
